# xmcd
#
# Track frame offsets:
#	150
#	13665
#	27265
#	43817
#	60067
#	77617
#	93995
#	107215
#	120320
#	133125
#	147212
#	161860
#	173065
#	190745
#	204025
#	227835
#	245832
#	257592
#	271142
#	285202
#
# Disc length: 4294 seconds
#
# Revision: 4
# Processed by: cddbd v1.5.2PL0 Copyright (c) Steve Scherf et al.
# Submitted via: EZCDAudioConverter 3.1.5.1
#
DISCID=0610c414
DTITLE=Compact Disc Club - Τα Τραγούδια Μας CD3
DYEAR=1996
DGENRE=laika
TTITLE0=Δημήτρης Μητροπάνος	 - Πες Μου Που Πουλάν' Καρδιές
TTITLE1=Μαρινέλλα	 - Κρασί, Θάλασσα Και Τ' Αγόρι Μου
TTITLE2=Γιώργος Ζαμπέτας	 - Ο Πενηντάρης
TTITLE3=Δούκισσα	 - Οι Μεγάλοι Έρωτες
TTITLE4=Γιάννης Πουλόπουλος	 - Για Σένα Τραγουδώ
TTITLE5=Αντώνης Καλογιάννης	 - Αννούλα Του Χιονιά
TTITLE6=Βίκυ Μοσχολιού	 - Ο Αλήτης
TTITLE7=Δημήτρης Μητροπάνος	 - Μια Ζωή Μέσα Στους Δρόμους
TTITLE8=Κατερίνα Στανίση	 - Μυστικέ Μου Έρωτα
TTITLE9=Ρίτα Σακελλαρίου - Μάριος	 - Ιστορία Μου
TTITLE10=Μαρινέλλα	 - Καμιά Φορά
TTITLE11=Βίκυ Μοσχολιού	 - Το Γράμμα Και Η Φωτογραφία
TTITLE12=Πετρή Σαλπέα	 - Άγιος Φεβρουάριος
TTITLE13=Γιάννης Βογιατζής - Τζένη Βάνου	 - Θέλω Κοντά Σου Να Μείνω
TTITLE14=Μαρινέλλα - Κώστας Χατζής	 - Είσαι Παντού Και Πουθενά
TTITLE15=Αντώνης Καλογιάννης - Αλέξια - 	Ώρα Μηδέν
TTITLE16=Τάνια Τσανακλίδου	 - Φίλε
TTITLE17=Διονύσης Θεοδόσης - 	Ό Έρωτας Της Κυριακής
TTITLE18=Πέτρος Γαϊτάνος	 - Στο Κάστρο Το Παλιό
TTITLE19=Διονύσης Σαββόπουλος	 - Αντί Επιλόγου, Απάνθισμα
EXTD=
EXTT0=
EXTT1=
EXTT2=
EXTT3=
EXTT4=
EXTT5=
EXTT6=
EXTT7=
EXTT8=
EXTT9=
EXTT10=
EXTT11=
EXTT12=
EXTT13=
EXTT14=
EXTT15=
EXTT16=
EXTT17=
EXTT18=
EXTT19=
PLAYORDER=
